<?xml version="1.0" encoding="utf-8"?>
<!-- Generator: Adobe Adobe Illustrator 24.2.0, SVG Export Plug-In . SVG Version: 6.00 Build 0)  -->
<svg version="1.1" xmlns="http://www.w3.org/2000/svg" xmlns:xlink="http://www.w3.org/1999/xlink"
	x="0px" y="0px" width="1200px"
	height="1200px" viewBox="0 0 1200 1200" style="enable-background:new 0 0 1200 1200;"
	xml:space="preserve">
<style type="text/css">
	.st0{display:none;}
	.st1{display:inline;stroke:#FFFFFF;stroke-miterlimit:10;}
	.st2{fill:url(#SVGID_1_);}
	.st3{fill:url(#SVGID_2_);}
	.st4{fill:url(#SVGID_3_);}
	.st5{fill:url(#SVGID_4_);}
	.st6{fill:url(#SVGID_5_);}
	.st7{fill:url(#SVGID_6_);}
	.st8{fill:#FFFFFF;}
</style>
<g id="Layer_4">
	<mask id="holeMask">
		<rect width="100%" height="100%" fill="white"/>
		<path d="M625.78,623.37c11.04-19.73,31.44-33.95,53.84-36.92c5.57,8.53,7.32,7.24,4.47,18.87
			C664.45,601.81,643.9,616.08,625.78,623.37z" fill="black"/>
		<path d="M638.12,643.23c21.76-6.14,46.24-1.77,64.18,11.96c-2.09,9.97,0.06,10.29-10.19,16.5
			C680.71,655.32,656.09,650.88,638.12,643.23z" fill="black"/>
		<path d="M632.8,665.99c19.73,11.04,33.95,31.44,36.92,53.84c-8.53,5.57-7.24,7.32-18.87,4.47
			C654.37,704.66,640.1,684.11,632.8,665.99z" fill="black"/>
	</mask>
	
	<g mask="url(#holeMask)">
		<g>
			<g>
				<g>
					<linearGradient id="SVGID_1_" gradientUnits="userSpaceOnUse" x1="502.7068" y1="684.2808" x2="502.7068" y2="714.1318">
						<stop  offset="0" style="stop-color:#FF9500"/>
						<stop  offset="0.2227" style="stop-color:#FF9900"/>
						<stop  offset="0.445" style="stop-color:#FFA500"/>
						<stop  offset="0.6673" style="stop-color:#FFB900"/>
						<stop  offset="0.8883" style="stop-color:#FFD500"/>
						<stop  offset="1" style="stop-color:#FFE600"/>
					</linearGradient>
					<circle class="st2" cx="502.71" cy="699.41" r="15.32"/>
					<linearGradient id="SVGID_2_" gradientUnits="userSpaceOnUse" x1="411.32" y1="713.8926" x2="411.32" y2="714.596">
						<stop  offset="0" style="stop-color:#FF9500"/>
						<stop  offset="0.2227" style="stop-color:#FF9900"/>
						<stop  offset="0.445" style="stop-color:#FFA500"/>
						<stop  offset="0.6673" style="stop-color:#FFB900"/>
						<stop  offset="0.8883" style="stop-color:#FFD500"/>
						<stop  offset="1" style="stop-color:#FFE600"/>
					</linearGradient>
					<path class="st3" d="M411.1,713.89c0.14,0.28,0.22,0.47,0.27,0.63C411.63,714.72,411.64,714.62,411.1,713.89z"/>
					<linearGradient id="SVGID_3_" gradientUnits="userSpaceOnUse" x1="410.7231" y1="713.3464" x2="410.7231" y2="714.8986">
						<stop  offset="0" style="stop-color:#FF9500"/>
						<stop  offset="0.2227" style="stop-color:#FF9900"/>
						<stop  offset="0.445" style="stop-color:#FFA500"/>
						<stop  offset="0.6673" style="stop-color:#FFB900"/>
						<stop  offset="0.8883" style="stop-color:#FFD500"/>
						<stop  offset="1" style="stop-color:#FFE600"/>
					</linearGradient>
					<path class="st4" d="M411.36,714.52c-0.26-0.2-0.77-0.68-1.31-1.18C409.79,713.83,411.76,715.76,411.36,714.52z"/>
					<linearGradient id="SVGID_4_" gradientUnits="userSpaceOnUse" x1="324.6295" y1="624.9175" x2="324.6295" y2="785.3666">
						<stop  offset="0" style="stop-color:#FF9500"/>
						<stop  offset="0.2227" style="stop-color:#FF9900"/>
						<stop  offset="0.445" style="stop-color:#FFA500"/>
						<stop  offset="0.6673" style="stop-color:#FFB900"/>
						<stop  offset="0.8883" style="stop-color:#FFD500"/>
						<stop  offset="1" style="stop-color:#FFE600"/>
					</linearGradient>
					<path class="st5" d="M411.43,713.59c2.23,1.05,4.93,0.43,6.27-1.68c1.53-2.41,0.43-4.18-0.61-5.83
						c-4.07-6.38-8.17-12.78-12.95-18.63c-8.1-9.92-18.15-17.9-27.84-26.18c-7.69-6.57-17.21-14.04-25.64-19.81
						c-19.99-13.69-40.03-19.01-65.91-17.25c-2.51,0.17-11.06,2.78-13.46,3.55c-2.63,0.84-9.66,4.72-11.76,6.54
						c-13,11.32-18.6,17.46-23.9,31.69c-2.18,5.85-4.4,15.76-4.73,22.01c-1.34,25.78,9.74,51.5,27.89,69.33
						c17.86,17.55,40.96,27.9,66.76,30.72c9.93,1.08,23.22,0.38,33.8-1.72c9.61-1.91,16.57-4.11,24.44-8.81
						c8.69-5.19,15.57-9.47,19.59-18.93c-8.5,4.38-18.94,5.1-28.31,6.51c-6.41,0.96-12.98,0.02-18.8-2.91
						c-6.9-3.47-9.25-6.71-15.01-11.79c-2.36-2.07-6.12-4.4-9.17-5c-3.05-0.6-8.94-1.83-10.97,0.5c-1.12-2.15,2.91-8.83,4.53-10.62
						c8.37-9.19,18.89-9.55,31.11-7.33c-2.94-5.75-10.13-9.55-15.69-11.8c-6.49-2.62-13.05-2.38-20.78-1.62
						c-4.16,0.41-7.45,2.69-11.19,4.61s-5.65,5.85-7.83,10.38c1.23-10.07,7.18-20.61,16.1-24.99s19.46-2.88,28.1-1.94
						c-0.69-3.25-7.04-7.91-7.04-7.91s-3.46-3.57-5.94-5.72c-3.4-2.94-6.89-5.36-11.72-8.21c-5.33-3.14-10.77-6.07-16.86-6.88
						c-16.33-2.16-34.3,3.52-43.64,17.04c-6.49-9.99-3.81-24.32,4.16-33.11c7.97-8.79,20.03-12.67,31.72-13.14
						c31.5-1.28,59.94,20.94,83.02,42.09c9.72,8.91,20.48,16.69,29.08,25.5c-0.39-0.93,0.75,0.08,1.79,1.04
						C410.15,713.16,410.53,713.16,411.43,713.59z"/>
					<linearGradient id="SVGID_5_" gradientUnits="userSpaceOnUse" x1="449.7304" y1="984.8141" x2="449.7304" y2="1181.3331">
						<stop  offset="0" style="stop-color:#FF9500"/>
						<stop  offset="0.2227" style="stop-color:#FF9900"/>
						<stop  offset="0.445" style="stop-color:#FFA500"/>
						<stop  offset="0.6673" style="stop-color:#FFB900"/>
						<stop  offset="0.8883" style="stop-color:#FFD500"/>
						<stop  offset="1" style="stop-color:#FFE600"/>
					</linearGradient>
					<path class="st6" d="M580.69,1102.29c-45.28-16.9-98.62-18.89-146.08-20.34c-47.46-1.45-95.54-2.6-141.22-17.96
						c-11.36-3.82-22.86-8.74-31.51-18.26s-13.85-24.63-9.97-37.85c-0.52-9.8-6.56-24.87-16.17-24.32c-2.05,0.12,0.53,0.32-0.24,0.32
						c-13.03,7.46-16.12,33.15-9.87,50.84c6.25,17.69,18.31,33.26,32.49,42.5c43.82,28.55,89.31,28.01,139.35,29.88
						c53.12,1.98,108.14-5.37,157.55,8.5c43.6,12.24,90.74,37.55,119.78,69.2c1.15,1.26,2.83-0.47,1.87-1.93
						C653.52,1147.56,617.04,1115.86,580.69,1102.29z"/>
					<linearGradient id="SVGID_6_" gradientUnits="userSpaceOnUse" x1="612.8199" y1="68.87" x2="612.8199" y2="1061.4155">
						<stop  offset="0" style="stop-color:#FF9500"/>
						<stop  offset="0.2227" style="stop-color:#FF9900"/>
						<stop  offset="0.445" style="stop-color:#FFA500"/>
						<stop  offset="0.6673" style="stop-color:#FFB900"/>
						<stop  offset="0.8883" style="stop-color:#FFD500"/>
						<stop  offset="1" style="stop-color:#FFE600"/>
					</linearGradient>
					<path class="st7" d="M1133.42,556.97c-15.51,15.71-37.04,25.45-60.86,25.45c-47.24,0-85.53-38.29-85.53-85.53
						s38.29-85.53,85.53-85.53c13.48,0,26.22,3.13,37.56,8.68c-36.22-113.59-112.02-210.1-211.61-274.12
						c0,37.01-30.01,67.01-67.02,67.01c-37.01,0-67.02-30.01-67.02-67.02c0-21.56,10.19-40.73,26.01-52.99
						c-55.44-19.67-115.27-30.41-177.66-30.41c-287.65,0-520.83,228.04-520.83,509.34c0,134.75,53.51,257.27,140.88,348.37
						c11.1-21.2,25.61-36.67,39.36-49.83c8.19-7.84,18.2-14.29,27.68-20.6c5.22-3.47,17.1-8.98,22.94-16.83
						c5.88-7.92,7.43-15.57,6.9-27.39c-25.39,0-44.12-4.31-66.38-18.57c-20.59-13.19-39.54-34.97-46.72-60.99
						c-9.67-35.05-5.32-70.88,20.21-95.72c26.18-25.48,56.3-27.53,92.82-19.81c-6.31-13.67-1.2-25.7,10.25-34.1
						c14.65-10.74,53.04-0.26,68.66,9.09c43.6,26.11,38.27,40.94,56.22,62.02c51.9-3.04,48.11-1.5,73.39-1.5
						c29.84,0,43.45,0.5,69.78,2.2c8.78,13.71,3.43,42.45,0.85,55.45c-3.88,19.55-10.27,38.19-14.26,45.47
						c-11.86,21.62-32.07,46.77-55.36,74.83c-39.74,47.87-37.6,124.69-36.63,139.7c1.34,20.69,4.96,61.23,10.34,80.05
						c2.67,9.35,6.83,20.36,9.83,29.9c29.26,4.99,59.35,7.6,90.07,7.6c175.03,0,329.9-84.44,424.33-213.93
						c-15.9-10.84-26.32-28.84-26.32-49.23c0-33.14,27.49-60,61.41-60c8.37,0,16.35,1.64,23.63,4.61
						c24.36-58.93,37.78-123.33,37.78-190.79C1133.65,566.87,1133.57,561.91,1133.42,556.97z M230.8,457.02
						c-16.22,0-29.36-13.15-29.36-29.36c0-16.22,13.15-29.36,29.36-29.36s29.36,13.15,29.36,29.36
						C260.16,443.88,247.02,457.02,230.8,457.02z M411.93,347.36c-48.29,0-87.44-39.15-87.44-87.44c0-48.29,39.15-87.44,87.44-87.44
						c48.29,0,87.44,39.15,87.44,87.44C499.37,308.21,460.23,347.36,411.93,347.36z M487.39,520.57c-26.95,0-48.8-21.85-48.8-48.8
						s21.85-48.8,48.8-48.8s48.8,21.85,48.8,48.8S514.34,520.57,487.39,520.57z M630.77,226.12c-26.79,0-48.51-21.72-48.51-48.51
						c0-26.79,21.72-48.51,48.51-48.51s48.51,21.72,48.51,48.51C679.28,204.4,657.56,226.12,630.77,226.12z M696.6,378.23
						c0-50.76,41.15-91.91,91.91-91.91c50.76,0,91.91,41.15,91.91,91.91s-41.15,91.91-91.91,91.91
						C737.75,470.15,696.6,429,696.6,378.23z M801.77,959.72c-16.92,0-30.64-13.72-30.64-30.64s13.72-30.64,30.64-30.64
						s30.64,13.72,30.64,30.64S818.69,959.72,801.77,959.72z M814,775.36c-41.95,0-75.95-34.01-75.95-75.95s34.01-75.95,75.95-75.95
						s75.95,34.01,75.95,75.95S855.95,775.36,814,775.36z M981.18,762.58c-23.27,0-42.13-18.86-42.13-42.13s18.86-42.13,42.13-42.13
						s42.13,18.86,42.13,42.13S1004.45,762.58,981.18,762.58z"/>
				</g>
			</g>
		</g>
	</g>
</g>
</svg>